<?xml version="1.0" encoding="UTF-8" standalone="no"?>
<svg
   xmlns:dc="http://purl.org/dc/elements/1.1/"
   xmlns:cc="http://creativecommons.org/ns#"
   xmlns:rdf="http://www.w3.org/1999/02/22-rdf-syntax-ns#"
   xmlns:svg="http://www.w3.org/2000/svg"
   xmlns="http://www.w3.org/2000/svg"
   xmlns:sodipodi="http://sodipodi.sourceforge.net/DTD/sodipodi-0.dtd"
   xmlns:inkscape="http://www.inkscape.org/namespaces/inkscape"
   enable-background="new 0 0 226.777 226.777"
   height="226.777px"
   id="Layer_1"
   version="1.1"
   viewBox="0 0 226.777 226.777"
   width="226.777px"
   xml:space="preserve"
   sodipodi:docname="molludic.svg"
   inkscape:version="0.92.3 (2405546, 2018-03-11)"><metadata
     id="metadata9"><rdf:RDF><cc:Work
         rdf:about=""><dc:format>image/svg+xml</dc:format><dc:type
           rdf:resource="http://purl.org/dc/dcmitype/StillImage" /><dc:title></dc:title></cc:Work></rdf:RDF></metadata><defs
     id="defs7" /><sodipodi:namedview
     pagecolor="#ffffff"
     bordercolor="#666666"
     borderopacity="1"
     objecttolerance="10"
     gridtolerance="10"
     guidetolerance="10"
     inkscape:pageopacity="0"
     inkscape:pageshadow="2"
     inkscape:window-width="1440"
     inkscape:window-height="847"
     id="namedview5"
     showgrid="false"
     inkscape:zoom="1.0406699"
     inkscape:cx="224.01768"
     inkscape:cy="82.027592"
     inkscape:window-x="0"
     inkscape:window-y="25"
     inkscape:window-maximized="1"
     inkscape:current-layer="Layer_1" /><path
     d="M113.389,0C50.767,0,0.001,50.766,0.001,113.389s50.766,113.388,113.389,113.388  c62.623,0,113.388-50.766,113.388-113.388S176.012,0,113.389,0z M181.424,86.053c2.42,3.35,3.214,7.877,3.475,10.725l-0.951,2.243  c-1.825,4.304-12.979,24.156-24.205,38.297c-9.725,12.251-24.339,26.782-27.841,30.226c-1.079-0.982-2.348-1.961-3.813-2.854  c3.292-4.322,16.049-21.396,24.119-36.903c9.192-17.667,18.487-42.46,20.016-48.37C174.246,80.163,178.592,82.133,181.424,86.053z   M150.199,60.389c2.04-0.042,6.537,0.328,11.672,3.679c4.974,3.247,7.536,9.422,8.607,12.738l-0.498,1.954  c-1.215,4.779-10.189,29.393-19.844,47.948c-8.186,15.731-21.271,33.123-24.121,36.849c-1.024-0.497-2.131-0.941-3.319-1.321  c2.651-5.449,13.265-27.697,18.215-44.583c5.829-19.879,9.193-46.423,9.288-57.17C150.199,60.448,150.199,60.42,150.199,60.389z   M127.535,48.476c1.389-0.595,4.136-1.159,8.852,0.127c5.403,1.475,9.58,6.985,11.494,9.949c-0.006,0.583-0.01,1.214-0.017,1.909  c-0.094,10.615-3.422,36.856-9.193,56.536c-5.04,17.19-16.043,40.062-18.272,44.625c-1.055-0.232-2.163-0.417-3.335-0.529  c0.928-5.803,4.987-31.632,7.546-55.168c2.715-24.97,2.926-49.74,2.926-56.737V48.476z M111.679,42.28  c6.232,0,11.326,3.83,13.52,5.786v1.121c0,6.967-0.209,31.633-2.91,56.484c-2.591,23.825-6.725,50.023-7.569,55.295  c-0.204-0.002-0.401-0.016-0.608-0.016c-1.175,0-2.292,0.065-3.362,0.179c-0.826-4.886-5.275-31.63-8.026-56.771  c-2.992-27.354-4.208-50.508-4.371-55.21c-0.013-0.377-0.021-0.729-0.031-1.083C100.463,46.109,105.449,42.28,111.679,42.28z   M83.544,50.134c5.856-2.716,10.417-1.97,12.462-1.372c0.005,0.159,0.007,0.302,0.013,0.466c0.163,4.72,1.384,27.958,4.383,55.383  c2.745,25.092,7.177,51.776,8.036,56.847c-1.228,0.229-2.376,0.525-3.455,0.877c-2.172-4.681-11.848-25.944-18.354-47.248  c-7.254-23.755-11.41-45.81-12.287-52.77c-0.103-0.804-0.192-1.523-0.276-2.171C75.34,57.326,78.155,52.632,83.544,50.134z   M61.22,65.601c4.282-3.16,8.712-3.37,10.772-3.258c0.012,0.09,0.021,0.172,0.034,0.267c0.884,7.023,5.073,29.259,12.372,53.159  c6.469,21.185,16.05,42.328,18.395,47.392c-0.826,0.355-1.607,0.737-2.334,1.147c-2.852-3.353-14.684-17.8-25.58-39.005  c-11.918-23.193-16.44-39.226-18.372-46.072l-0.292-1.037c-0.302-1.057-0.534-1.928-0.716-2.658  C56.1,72.633,57.584,68.282,61.22,65.601z M41.815,86.683c2.664-4.923,9.451-7.172,12.142-7.893  c0.004,0.015,0.008,0.028,0.012,0.043l0.292,1.03c1.95,6.913,6.517,23.105,18.541,46.507c10.733,20.888,22.396,35.321,25.662,39.191  c-0.93,0.646-1.758,1.319-2.492,1.989c-3.375-2.91-16.827-14.846-30.563-31.705c-11.584-14.217-19.585-26.815-23.782-37.453  c-0.668-1.69-1.198-3.143-1.615-4.342C40.034,91.821,40.452,89.2,41.815,86.683z M72.187,156.184  c-23.539-20.425-36.428-34.629-36.938-43.603c-0.39-6.847,3.039-10.712,4.687-12.164c4.395,10.606,12.342,23.009,23.662,36.904  c13.673,16.779,27.088,28.745,30.725,31.89c-1.062,1.181-1.83,2.266-2.344,3.08C86.359,168.082,79.759,162.756,72.187,156.184z   M114.208,185.074c-2.746,0-9.584-3.492-20.349-11.385c1.718-2.817,7.526-10.404,20.252-10.404c12.638,0,18.461,7.78,20.222,10.742  C124.755,180.846,116.962,185.074,114.208,185.074z M191.539,111.344c-0.486,8.654-15.126,25.823-33.51,43.185  c-7.303,6.896-14.947,13.129-21.818,18.145c-0.57-0.912-1.443-2.15-2.659-3.481c3.564-3.505,18.231-18.095,28.018-30.423  c11.25-14.174,22.456-34.077,24.468-38.702C187.958,101.336,191.908,104.764,191.539,111.344z"
     id="path2"
     style="fill:#ff5555"
     fill="#1D1D1B" /><path
     style="opacity:0.9;fill:#2a7fff;fill-opacity:1;stroke:#ffffe8;stroke-width:0.48045972;stroke-opacity:1"
     d="m 130.07636,165.88995 c -0.7267,-0.63961 -1.32127,-1.30562 -1.32127,-1.48004 0,-0.17442 1.69313,-2.61712 3.76251,-5.42822 7.50614,-10.19656 14.99669,-21.93088 19.71185,-30.87962 5.50276,-10.44349 13.99986,-30.358714 18.11475,-42.45676 0.98868,-2.906781 1.93567,-5.445022 2.10443,-5.640536 0.58984,-0.683337 6.42183,3.235517 8.26116,5.55115 1.94624,2.450227 3.77863,7.416775 3.77863,10.241644 0,2.734552 -5.66898,13.190952 -14.23661,26.259352 -5.86414,8.94469 -10.31785,14.88891 -16.81109,22.4372 -4.79384,5.57275 -21.19922,22.60201 -21.74692,22.57393 -0.1629,-0.008 -0.89075,-0.5385 -1.61744,-1.1781 z"
     id="path823"
     inkscape:connector-curvature="0" /><path
     style="opacity:0.9;fill:#ff0000;fill-opacity:1;stroke:#ffffe8;stroke-width:0.48045972;stroke-opacity:1"
     d="M 97.432861,160.21941 C 81.057644,139.39168 66.712571,111.67686 58.460599,84.924621 57.278686,81.092954 56.170013,77.289324 55.99688,76.472108 c -0.42558,-2.00881 1.185975,-6.206923 3.355792,-8.741867 2.0179,-2.357463 6.640462,-4.71887 10.065644,-5.141974 l 2.402299,-0.29675 1.079703,6.632069 c 2.436703,14.967431 8.491335,38.710994 14.065471,55.158504 3.216105,9.4897 8.617181,23.33333 12.724856,32.61537 1.451535,3.28003 2.639165,6.08621 2.639165,6.23598 0,0.14977 -0.40368,0.48835 -0.89706,0.7524 -0.76955,0.41185 -1.33805,-0.0808 -3.999889,-3.46643 z"
     id="path825"
     inkscape:connector-curvature="0" /><path
     style="opacity:0.9;fill:#ff0000;fill-opacity:1;stroke:#ffffe8;stroke-width:0.67947268;stroke-opacity:1"
     d="m 130.19452,165.23855 c -0.67704,-0.81579 -0.0939,-2.01134 3.2315,-6.62486 5.69946,-7.90725 13.57524,-20.16349 17.58943,-27.37256 5.69715,-10.23149 15.14566,-31.945185 20.03139,-46.034276 0.87475,-2.522542 1.78741,-4.58644 2.02813,-4.58644 0.24072,0 1.91286,1.016601 3.71586,2.259113 4.16655,2.871313 6.69787,7.536388 6.71233,12.370425 0.009,2.915742 -0.57477,4.463973 -3.96913,10.531828 -5.51628,9.86103 -15.52269,24.83443 -22.00879,32.93355 -5.50169,6.86989 -24.99013,27.51864 -25.9723,27.51864 -0.29276,0 -0.90405,-0.44794 -1.35842,-0.99542 z"
     id="path827"
     inkscape:connector-curvature="0" /><path
     style="opacity:0.9;fill:#5599ff;fill-opacity:1;stroke:#ffffe8;stroke-width:0.67947268;stroke-opacity:1"
     d="M 97.167381,158.92964 C 88.237525,147.97647 76.238024,127.50788 68.640839,110.26944 63.323413,98.203902 56.791726,79.02016 56.791726,75.468272 c 0,-4.244448 2.729721,-7.997622 7.579281,-10.420975 6.159056,-3.077717 7.089393,-2.898629 7.657525,1.474059 0.798785,6.147944 3.68636,19.374848 7.169873,32.842523 5.155625,19.932261 8.386301,29.157041 21.098895,60.245231 0.72589,1.77512 1.03529,3.2275 0.68757,3.2275 -0.34773,0 -2.065597,-1.75814 -3.817489,-3.90697 z"
     id="path829"
     inkscape:connector-curvature="0" /><text
     xml:space="preserve"
     style="font-style:normal;font-variant:normal;font-weight:normal;font-stretch:normal;font-size:40px;line-height:1.25;font-family:'Chasing Embers Demo Version';-inkscape-font-specification:'Chasing Embers Demo Version';letter-spacing:0px;word-spacing:0px;fill:#ffffff;fill-opacity:1;stroke:none"
     x="83.599998"
     y="213.16779"
     id="text833"><tspan
       sodipodi:role="line"
       id="tspan831"
       x="83.599998"
       y="213.16779"
       style="font-style:normal;font-variant:normal;font-weight:normal;font-stretch:normal;font-size:26.66666603px;font-family:Purisa;-inkscape-font-specification:Purisa;fill:#ffffff">CNV</tspan></text>
</svg>